<svg xmlns="http://www.w3.org/2000/svg" width="24" height="24" viewBox="0 0 24 24" fill="#007bff">
  <path d="M15 4l-1-1h-4l-1 1H5v2h14V4zM7 8v10c0 1.1.9 2 2 2h6c1.1 0 2-.9 2-2V8H7zm3 2h2v6h-2v-6zm4 0h2v6h-2v-6z"/>
  <rect x="17" y="2" width="5" height="5" rx="1" fill="#007bff"/>
  <line x1="18" y1="3" x2="22" y2="3" stroke="#ffffff" stroke-width="1"/>
  <line x1="18" y1="4.5" x2="22" y2="4.5" stroke="#ffffff" stroke-width="1"/>
  <line x1="18" y1="6" x2="21" y2="6" stroke="#ffffff" stroke-width="1"/>
</svg>
